<svg width="88" height="88" viewBox="0 0 88 88" role="img" xmlns="http://www.w3.org/2000/svg">
  <title>Business card</title>
  <desc>A business card with avatar, name, title lines, and a QR code in the corner</desc>
  <rect x="10" y="16" width="68" height="42" rx="4" fill="none" stroke="#39e639" stroke-width="1.6"/>
  <circle cx="27" cy="31" r="8" fill="none" stroke="#39e639" stroke-width="1.3"/>
  <circle cx="27" cy="28" r="3" fill="#39e639" opacity="0.6"/>
  <path d="M19,39 Q27,34 35,39" fill="#39e639" opacity="0.6"/>
  <rect x="40" y="25" width="28" height="3" rx="1" fill="#39e639" opacity="0.7"/>
  <rect x="40" y="32" width="20" height="2.5" rx="1" fill="#39e639" opacity="0.4"/>
  <line x1="10" y1="44" x2="78" y2="44" stroke="#39e639" stroke-width="0.8" opacity="0.3"/>
  <rect x="54" y="47" width="16" height="8" rx="1" fill="none" stroke="#39e639" stroke-width="1"/>
  <rect x="55.5" y="48.5" width="2.5" height="2.5" fill="#39e639"/>
  <rect x="59.5" y="48.5" width="2.5" height="2.5" fill="#39e639"/>
  <rect x="55.5" y="52" width="2.5" height="2.5" fill="#39e639"/>
  <rect x="59.5" y="51" width="1.2" height="1.2" fill="#39e639"/>
  <rect x="62" y="49.5" width="1.2" height="1.2" fill="#39e639"/>
  <rect x="16" y="49" width="22" height="2" rx="1" fill="#39e639" opacity="0.35"/>
  <rect x="16" y="53" width="16" height="2" rx="1" fill="#39e639" opacity="0.25"/>
</svg>
